<svg width="50" height="64" viewBox="0 0 50 64" fill="none" xmlns="http://www.w3.org/2000/svg">
<path d="M15.6705 24.2845C15.4914 24.3509 15.3436 24.4791 15.2522 24.6464L9.56282 34.9176C9.39369 35.2213 9.44233 35.5987 9.68149 35.8519C9.92065 36.1029 10.2985 36.1711 10.6081 36.0192C23.0208 29.9988 34.6814 34.1641 37.9592 35.5873C38.3484 35.7564 38.724 35.9551 39.0823 36.1811C39.2127 36.263 39.3605 36.3039 39.5065 36.3039C39.7343 36.3039 39.9598 36.2048 40.1157 36.0197C40.3726 35.716 40.3649 35.2704 40.1021 34.9744L38.1188 32.7538C26.8646 20.3062 16.122 24.1189 15.6704 24.2845L15.6705 24.2845ZM12.1045 33.6154L16.4935 25.6917C18.1635 25.1898 26.9711 23.2061 36.4463 33.2926C31.7595 31.6707 22.3238 29.5338 12.1053 33.6154L12.1045 33.6154Z" fill="black"/>
<path d="M18.8589 19.946C21.7884 18.019 30.3445 23.8253 35.0509 27.9319C35.201 28.0624 35.3879 28.1283 35.5747 28.1283C35.7598 28.1283 35.9444 28.0642 36.0944 27.9356C36.3941 27.6768 36.4604 27.239 36.2481 26.9039L24.4338 8.25933C24.2801 8.01609 23.9995 7.88741 23.7213 7.88968C23.4353 7.90332 23.1784 8.07064 23.0479 8.32753L17.7091 18.9216C17.5477 19.2426 17.6213 19.634 17.8901 19.875C18.1624 20.1133 18.5557 20.1446 18.8594 19.946L18.8589 19.946ZM23.8394 10.2995L32.345 23.7237C28.9118 21.1739 23.9017 17.9875 20.3119 17.9875C20.1932 17.9875 20.0745 17.9916 19.9577 17.9993L23.8394 10.2995Z" fill="black"/>
<path d="M24.8823 3.9668C13.2449 3.9668 3.7771 13.4341 3.7771 25.072C3.7771 34.6729 10.2935 43.0216 19.4489 45.4544C18.8832 46.0245 18.4918 46.3364 18.4777 46.3473C18.2303 46.5379 18.1157 46.8575 18.1876 47.1608L20.1836 55.606C19.9239 55.7137 19.7089 55.9088 19.673 56.2016L18.8477 63.1072C18.8204 63.335 18.8927 63.5628 19.0464 63.7338C19.1965 63.9029 19.4124 64.0007 19.6402 64.0007H19.6461L31.0867 63.9207C31.3145 63.9189 31.5323 63.8175 31.6824 63.646C31.8324 63.4728 31.9024 63.2432 31.8711 63.0172L30.9503 56.1252C30.8976 55.726 30.6039 55.5141 30.1542 55.4323L29.98 55.4337L31.836 47.069C31.9042 46.7634 31.7855 46.4461 31.5341 46.2574C31.5195 46.2465 31.1267 45.9436 30.5561 45.3871C39.5724 42.8705 45.9857 34.5495 45.9857 25.0711C45.9857 13.4345 36.5184 3.96707 24.8805 3.96707L24.8823 3.9668ZM30.1707 62.3332L20.5402 62.3995L21.1745 57.0916L28.9913 57.037C28.9922 57.037 28.9926 57.0361 28.9931 57.0361L29.4641 57.0329L30.1707 62.3332ZM28.3451 55.4457L25.8676 55.4625L25.8444 52.0297C26.9975 51.6751 27.8391 50.6084 27.8308 49.343C27.8268 48.5955 27.5312 47.8931 26.9979 47.3674C26.4646 46.84 25.8398 46.554 25.0087 46.5576C23.465 46.5695 22.2156 47.8344 22.2233 49.3798V49.3816C22.2328 50.647 23.0899 51.7024 24.248 52.0406L24.2712 55.4729L21.7963 55.4898L19.8544 47.2733C20.8901 46.3653 23.6204 43.6754 24.9608 39.5769C26.3571 43.6577 29.1234 46.3094 30.1723 47.2033L28.3451 55.4457ZM25.0359 50.5692C24.6367 50.5574 24.4071 50.4464 24.1793 50.2227C23.9497 49.995 23.821 49.693 23.8192 49.372C23.8151 48.7046 24.3544 48.1576 25.02 48.1535C25.2828 48.1339 25.6488 48.274 25.8784 48.5018C26.1062 48.7273 26.2344 49.0292 26.2344 49.3525C26.2408 50.0186 25.7016 50.5651 25.0359 50.5692ZM29.334 44.0564C27.8817 42.3073 26.1854 39.5765 25.8061 36.0632C26.1694 35.7895 26.419 35.3743 26.4159 34.8842C26.41 34.0626 25.7398 33.4015 24.9182 33.407C24.0966 33.4124 23.4355 34.0831 23.441 34.9047C23.4446 35.3948 23.7001 35.8072 24.0675 36.0755C23.7361 39.5793 22.0788 42.3333 20.651 44.106C11.773 42.1413 5.37385 34.2208 5.37385 25.0715C5.37385 14.3138 14.1251 5.56214 24.8832 5.56214C35.6409 5.5626 44.3915 14.3134 44.3915 25.0715C44.3915 34.1114 38.0841 42.012 29.3343 44.0571L29.334 44.0564Z" fill="black"/>
<path d="M23.5685 1.59593H25.6123C26.052 1.59593 26.4103 1.23764 26.4103 0.797963C26.4103 0.358283 26.052 0 25.6123 0H23.5685C23.1288 0 22.7705 0.358283 22.7705 0.797963C22.7705 1.23764 23.1288 1.59593 23.5685 1.59593Z" fill="black"/>
<path d="M16.1899 3.1801C16.2717 3.1801 16.3536 3.16646 16.4349 3.141L18.3791 2.51036C18.7997 2.37395 19.0271 1.92427 18.8929 1.50597C18.7547 1.0854 18.3091 0.861691 17.8885 0.992185L15.9444 1.62283C15.5238 1.75923 15.2964 2.20891 15.4306 2.62721C15.5415 2.96595 15.853 3.1801 16.1899 3.1801Z" fill="black"/>
<path d="M9.66215 6.96775C9.82583 6.96775 9.98907 6.91728 10.1314 6.81407L11.786 5.61331C12.142 5.35642 12.2202 4.85627 11.961 4.4998C11.7 4.14379 11.2017 4.06558 10.8475 4.32475L9.19292 5.52551C8.83691 5.7824 8.7587 6.28255 9.01787 6.63902C9.17336 6.85316 9.41708 6.96775 9.66215 6.96775Z" fill="black"/>
<path d="M4.62459 12.5869C4.86967 12.5869 5.11291 12.4718 5.26888 12.2577L6.47149 10.6031C6.73021 10.2471 6.65246 9.74877 6.29644 9.4896C5.94043 9.23088 5.44211 9.30863 5.18294 9.66465L3.98032 11.3192C3.7216 11.6753 3.79936 12.1736 4.15537 12.4327C4.29769 12.5364 4.46137 12.5869 4.62459 12.5869Z" fill="black"/>
<path d="M1.32337 19.4499C1.40521 19.4754 1.48887 19.489 1.57071 19.489C1.90763 19.489 2.21863 19.2749 2.33002 18.938L2.96248 16.9938C3.0966 16.5755 2.86881 16.1235 2.45052 15.9876C2.03585 15.8589 1.58254 16.0812 1.44432 16.4995L0.811859 18.4437C0.677281 18.8625 0.905068 19.314 1.32337 19.4499Z" fill="black"/>
<path d="M1.59593 26.197V24.1515C1.59593 23.7118 1.23764 23.3535 0.797963 23.3535C0.358295 23.3535 0 23.7118 0 24.1515V26.197C0 26.6367 0.358283 26.995 0.797963 26.995C1.23763 26.995 1.59593 26.6367 1.59593 26.197Z" fill="black"/>
<path d="M2.51072 31.3841C2.37249 30.9658 1.92463 30.7439 1.50452 30.8722C1.08621 31.0086 0.85842 31.4582 0.992556 31.8784L1.62501 33.8249C1.73595 34.1618 2.04741 34.3759 2.38432 34.3759C2.46616 34.3759 2.54983 34.3623 2.63167 34.3368C3.04998 34.2004 3.27776 33.7508 3.14363 33.3306L2.51072 31.3841Z" fill="black"/>
<path d="M5.6138 37.979C5.35281 37.6207 4.85449 37.5447 4.50029 37.8039C4.14428 38.0626 4.06607 38.561 4.32524 38.9174L5.52786 40.572C5.68336 40.7862 5.92707 40.9012 6.17215 40.9012C6.33582 40.9012 6.49906 40.8507 6.64137 40.7475C6.99738 40.4888 7.07559 39.9905 6.81642 39.634L5.6138 37.979Z" fill="black"/>
<path d="M10.6063 43.295C10.2503 43.0381 9.75194 43.1122 9.49277 43.47C9.23405 43.8261 9.31181 44.3267 9.66782 44.5835L11.3224 45.7843C11.4643 45.8875 11.628 45.938 11.7916 45.938C12.0367 45.938 12.28 45.8229 12.4359 45.6088C12.6946 45.2528 12.6169 44.7522 12.2609 44.4953L10.6063 43.295Z" fill="black"/>
<path d="M39.6358 42.9507L37.9813 44.1515C37.6252 44.4083 37.547 44.9085 37.8062 45.265C37.9617 45.4791 38.2054 45.5941 38.4505 45.5941C38.6142 45.5941 38.7774 45.5437 38.9197 45.4405L40.5743 44.2397C40.9303 43.9828 41.0085 43.4827 40.7493 43.1262C40.4906 42.7697 39.9882 42.6915 39.6358 42.9507Z" fill="black"/>
<path d="M44.4989 37.5056L43.2962 39.1602C43.0375 39.5162 43.1153 40.0145 43.4713 40.2737C43.6132 40.3769 43.7768 40.4273 43.9405 40.4273C44.1856 40.4273 44.4288 40.3123 44.5848 40.0982L45.7874 38.4436C46.0461 38.0876 45.9684 37.5892 45.6124 37.3301C45.2559 37.0718 44.7576 37.1496 44.4989 37.5056Z" fill="black"/>
<path d="M48.4437 30.3147C48.0272 30.186 47.5757 30.4084 47.4375 30.8267L46.8051 32.7709C46.6709 33.1892 46.8987 33.6411 47.317 33.7771C47.3989 33.8025 47.4825 33.8162 47.5644 33.8162C47.9013 33.8162 48.2123 33.602 48.3237 33.2651L48.9561 31.3209C49.0898 30.9026 48.862 30.4507 48.4437 30.3147Z" fill="black"/>
<path d="M48.9696 22.7686C48.5299 22.7686 48.1716 23.1268 48.1716 23.5665V25.6121C48.1716 26.0518 48.5299 26.4101 48.9696 26.4101C49.4093 26.4101 49.7676 26.0518 49.7676 25.6121V23.5665C49.7676 23.1268 49.4093 22.7686 48.9696 22.7686Z" fill="black"/>
<path d="M48.0155 18.9316C48.0973 18.9316 48.181 18.918 48.2628 18.8925C48.6811 18.7561 48.9089 18.3064 48.7748 17.8863L48.1423 15.9398C48.0041 15.5215 47.5585 15.2996 47.1361 15.4278C46.7178 15.5642 46.49 16.0139 46.6241 16.434L47.2566 18.3805C47.3675 18.7175 47.679 18.9316 48.0155 18.9316Z" fill="black"/>
<path d="M44.1531 11.7854C44.3086 11.9996 44.5523 12.1146 44.7974 12.1146C44.9611 12.1146 45.1243 12.0641 45.2666 11.9609C45.6226 11.7022 45.7008 11.2039 45.4417 10.8474L44.239 9.19284C43.9781 8.83455 43.4797 8.75862 43.1255 9.01779C42.7695 9.2765 42.6913 9.77483 42.9505 10.1313L44.1531 11.7854Z" fill="black"/>
<path d="M39.1608 6.4696C39.3027 6.57281 39.4663 6.62328 39.63 6.62328C39.8751 6.62328 40.1183 6.50824 40.2743 6.29409C40.533 5.93808 40.4553 5.43748 40.0992 5.18059L38.4447 3.97983C38.0905 3.72111 37.5903 3.79887 37.3311 4.15488C37.0724 4.5109 37.1502 5.0115 37.5062 5.26839L39.1608 6.4696Z" fill="black"/>
<path d="M30.8292 2.32744L32.7734 2.9599C32.8552 2.98536 32.9389 2.999 33.0207 2.999C33.3576 2.999 33.6686 2.78486 33.78 2.44793C33.9142 2.02962 33.6864 1.57767 33.2681 1.44173L31.3234 0.809277C30.9051 0.684697 30.4554 0.902941 30.3172 1.32124C30.1826 1.73955 30.4104 2.19105 30.8292 2.32744Z" fill="black"/>
</svg>
