<svg width="64" height="64" viewBox="0 0 64 64" fill="none" xmlns="http://www.w3.org/2000/svg">
<path d="M6.73534 63.862H32.1796C33.9655 63.8602 35.6774 63.1497 36.9403 61.8873C38.2027 60.6245 38.9132 58.9125 38.915 57.1267V6.73534C38.9132 4.9495 38.2027 3.23755 36.9403 1.97469C35.6774 0.712284 33.9655 0.00171058 32.1796 0H6.73534C4.9495 0.00178185 3.23755 0.712296 1.97469 1.97469C0.712285 3.23755 0.00171058 4.9495 0 6.73534V57.1267C0.00178185 58.9125 0.712296 60.6245 1.97469 61.8873C3.23755 63.1497 4.9495 63.8603 6.73534 63.862ZM28.089 1.49664L26.8916 3.73111C26.6359 4.24473 26.2457 4.6795 25.7624 4.98861C25.2791 5.29821 24.7209 5.47061 24.1476 5.48798H14.768C14.1955 5.46971 13.6383 5.29687 13.1562 4.98772C12.6738 4.67813 12.2845 4.24425 12.0288 3.73102L10.8291 1.49655L28.089 1.49664ZM1.49641 6.73534C1.4982 5.34635 2.05057 4.01495 3.0324 3.03263C4.01464 2.05082 5.34612 1.49847 6.73511 1.49664H9.12992L10.7091 4.4402C11.0922 5.19169 11.6718 5.82554 12.3867 6.27371C13.1013 6.72185 13.9244 6.9673 14.7678 6.98467H24.1474C24.9907 6.9673 25.8134 6.72141 26.5275 6.27327C27.242 5.82513 27.8216 5.19168 28.2047 4.44021L29.7851 1.49665H32.18C33.5689 1.49843 34.9003 2.05081 35.8827 3.03264C36.8645 4.01488 37.4168 5.34636 37.4187 6.73535V57.1267C37.4169 58.5157 36.8645 59.8471 35.8827 60.8294C34.9004 61.8112 33.5689 62.3636 32.18 62.3654H6.73568C5.34669 62.3636 4.0153 61.8112 3.03297 60.8294C2.05116 59.8471 1.49881 58.5157 1.49698 57.1267L1.49641 6.73534Z" fill="black"/>
<path d="M24.6964 55.8789H14.2191C13.8057 55.8789 13.4707 56.2139 13.4707 56.6273C13.4707 57.0407 13.8057 57.3757 14.2191 57.3757H24.6964C25.1098 57.3757 25.4447 57.0407 25.4447 56.6273C25.4447 56.2139 25.1098 55.8789 24.6964 55.8789Z" fill="black"/>
<path d="M53.8836 0C51.2372 0 48.6993 1.0513 46.828 2.92269C44.9566 4.79409 43.9053 7.33188 43.9053 9.97837C43.9053 12.6249 44.9566 15.1627 46.828 17.034C48.6994 18.9054 51.2372 19.9567 53.8836 19.9567C56.5301 19.9567 59.0679 18.9054 60.9393 17.034C62.8107 15.1626 63.862 12.6249 63.862 9.97837C63.8589 7.33279 62.8067 4.79669 60.9362 2.92577C59.0653 1.05531 56.5292 0.00307904 53.8836 0ZM53.8836 18.4606C51.634 18.4606 49.4766 17.567 47.8864 15.9762C46.2956 14.386 45.402 12.2286 45.402 9.97894C45.402 7.7293 46.2956 5.57192 47.8864 3.98165C49.4766 2.39093 51.634 1.49733 53.8836 1.49733C56.1333 1.49733 58.2907 2.39092 59.8809 3.98165C61.4717 5.57192 62.3653 7.7293 62.3653 9.97894C62.3626 12.2277 61.4685 14.3837 59.8782 15.9735C58.2884 17.5638 56.1323 18.4578 53.8836 18.4606Z" fill="black"/>
<path d="M53.8836 44.043C51.2372 44.043 48.6993 45.0943 46.828 46.9657C44.9566 48.837 43.9053 51.3748 43.9053 54.0213C43.9053 56.6678 44.9566 59.2056 46.828 61.077C48.6994 62.9484 51.2372 63.9997 53.8836 63.9997C56.5301 63.9997 59.0679 62.9484 60.9393 61.077C62.8107 59.2056 63.862 56.6678 63.862 54.0213C63.8589 51.3758 62.8067 48.8397 60.9362 46.9687C59.0653 45.0983 56.5292 44.046 53.8836 44.043ZM53.8836 62.5035C51.634 62.5035 49.4766 61.6099 47.8864 60.0192C46.2956 58.4289 45.402 56.2715 45.402 54.0219C45.402 51.7723 46.2956 49.6149 47.8864 48.0246C49.4766 46.4339 51.634 45.5403 53.8836 45.5403C56.1333 45.5403 58.2907 46.4339 59.8809 48.0246C61.4717 49.6149 62.3653 51.7723 62.3653 54.0219C62.3626 56.2706 61.4685 58.4266 59.8782 60.0165C58.2884 61.6067 56.1323 62.5008 53.8836 62.5035Z" fill="black"/>
<path d="M53.8836 21.9531C51.2372 21.9531 48.6993 23.0044 46.828 24.8758C44.9566 26.7472 43.9053 29.285 43.9053 31.9315C43.9053 34.578 44.9566 37.1158 46.828 38.9872C48.6994 40.8585 51.2372 41.9099 53.8836 41.9099C56.5301 41.9099 59.0679 40.8586 60.9393 38.9872C62.8107 37.1158 63.862 34.578 63.862 31.9315C63.8589 29.2859 62.8067 26.7498 60.9362 24.8789C59.0653 23.0084 56.5292 21.9562 53.8836 21.9531ZM53.8836 40.4137C51.634 40.4137 49.4766 39.5201 47.8864 37.9293C46.2956 36.3391 45.402 34.1817 45.402 31.9321C45.402 29.6824 46.2956 27.525 47.8864 25.9348C49.4766 24.3441 51.634 23.4505 53.8836 23.4505C56.1333 23.4505 58.2907 24.344 59.8809 25.9348C61.4717 27.525 62.3653 29.6824 62.3653 31.9321C62.3626 34.1808 61.4685 36.3368 59.8782 37.9266C58.2884 39.5169 56.1323 40.4109 53.8836 40.4137Z" fill="black"/>
<path d="M56.9204 10.8887C56.7382 10.8099 56.5324 10.8068 56.348 10.8798C56.1636 10.9533 56.0157 11.0968 55.9368 11.279C55.703 11.8144 55.2691 12.2371 54.7278 12.4577C54.1865 12.6777 53.5807 12.6777 53.0394 12.4577C52.4982 12.2372 52.0643 11.8144 51.8304 11.279C51.6665 10.8994 51.2259 10.7248 50.8468 10.8887C50.4673 11.0527 50.2927 11.4932 50.4566 11.8728C50.8459 12.7672 51.5698 13.4747 52.4737 13.8425C53.3776 14.2109 54.3897 14.2109 55.2935 13.8425C56.1974 13.4746 56.9212 12.7672 57.3107 11.8728C57.3895 11.6901 57.3926 11.4843 57.3196 11.2999C57.2465 11.1155 57.1026 10.9676 56.9204 10.8887Z" fill="black"/>
<path d="M53.8836 54.7324C53.1557 54.7311 52.4429 54.9427 51.834 55.3418C51.2246 55.741 50.7461 56.3094 50.4566 56.9776C50.2927 57.3571 50.4673 57.7977 50.8468 57.9616C51.2259 58.1256 51.6665 57.9509 51.8304 57.5714C52.0643 57.0359 52.4982 56.6128 53.0394 56.3927C53.5807 56.1722 54.1866 56.1722 54.7278 56.3927C55.269 56.6128 55.7029 57.0359 55.9368 57.5714C56.1008 57.9509 56.5413 58.1256 56.9204 57.9616C57.1026 57.8828 57.2465 57.7349 57.3195 57.5505C57.3926 57.366 57.3895 57.1598 57.3106 56.9776C57.0211 56.3094 56.5426 55.741 55.9333 55.3418C55.3243 54.9427 54.6115 54.7311 53.8836 54.7324Z" fill="black"/>
<path d="M56.3787 33.1787H51.3895C50.9761 33.1787 50.6411 33.5137 50.6411 33.9271C50.6411 34.3405 50.9761 34.6755 51.3895 34.6755H56.3787C56.7921 34.6755 57.1271 34.3405 57.1271 33.9271C57.1271 33.5137 56.7921 33.1787 56.3787 33.1787Z" fill="black"/>
<path d="M6.23682 24.9459H32.6801C33.2752 24.9455 33.8459 24.7085 34.2668 24.2875C34.6878 23.8666 34.9247 23.296 34.9252 22.7008V11.7246C34.9247 11.1295 34.6878 10.5588 34.2668 10.1379C33.8458 9.71692 33.2752 9.47994 32.6801 9.47949H6.23682C5.64168 9.47994 5.071 9.71692 4.65009 10.1379C4.22913 10.5588 3.99214 11.1295 3.9917 11.7246V22.7008C3.99214 23.296 4.22913 23.8666 4.65009 24.2875C5.07105 24.7085 5.64169 24.9455 6.23682 24.9459ZM5.48844 11.7243C5.48844 11.3109 5.82343 10.9759 6.23682 10.9759H32.6801C33.0935 10.9759 33.4284 11.3109 33.4284 11.7243V22.7005C33.4284 23.1139 33.0935 23.4489 32.6801 23.4489H6.23682C5.82343 23.4489 5.48844 23.1139 5.48844 22.7005V11.7243Z" fill="black"/>
<path d="M6.23682 52.3872H32.6801C33.2752 52.3868 33.8459 52.1498 34.2668 51.7288C34.6878 51.3079 34.9247 50.7372 34.9252 50.1421V43.1572C34.9247 42.5621 34.6878 41.9914 34.2668 41.5705C33.8458 41.1495 33.2752 40.9126 32.6801 40.9121H6.23682C5.64168 40.9126 5.071 41.1495 4.65009 41.5705C4.22913 41.9915 3.99214 42.5621 3.9917 43.1572V50.1421C3.99214 50.7372 4.22913 51.3079 4.65009 51.7288C5.07105 52.1498 5.64169 52.3868 6.23682 52.3872ZM5.48844 43.1572C5.48844 42.7438 5.82343 42.4088 6.23682 42.4088H32.6801C33.0935 42.4088 33.4284 42.7438 33.4284 43.1572V50.142C33.4284 50.5554 33.0935 50.8904 32.6801 50.8904H6.23682C5.82343 50.8904 5.48844 50.5554 5.48844 50.142V43.1572Z" fill="black"/>
<path d="M6.23682 38.9164H16.2152C16.8103 38.916 17.381 38.679 17.8019 38.258C18.2229 37.837 18.4599 37.2664 18.4603 36.6713V29.1875C18.4599 28.5924 18.2229 28.0217 17.8019 27.6008C17.381 27.1798 16.8103 26.9428 16.2152 26.9424H6.23682C5.64168 26.9428 5.071 27.1798 4.65009 27.6008C4.22913 28.0217 3.99214 28.5924 3.9917 29.1875V36.6713C3.99214 37.2664 4.22913 37.8371 4.65009 38.258C5.07105 38.679 5.64169 38.916 6.23682 38.9164ZM5.48844 29.1876C5.48844 28.7742 5.82343 28.4392 6.23682 28.4392H16.2152C16.6286 28.4392 16.9636 28.7742 16.9636 29.1876V36.6713C16.9636 37.0847 16.6286 37.4197 16.2152 37.4197H6.23682C5.82343 37.4197 5.48844 37.0847 5.48844 36.6713V29.1876Z" fill="black"/>
<path d="M32.6791 26.9424H22.7007C22.1055 26.9428 21.5349 27.1798 21.114 27.6008C20.693 28.0217 20.456 28.5924 20.4556 29.1875V36.6713C20.456 37.2664 20.693 37.8371 21.114 38.258C21.5349 38.679 22.1056 38.916 22.7007 38.9164H32.6791C33.2742 38.916 33.8449 38.679 34.2658 38.258C34.6867 37.8371 34.9237 37.2664 34.9242 36.6713V29.1875C34.9237 28.5924 34.6867 28.0217 34.2658 27.6008C33.8448 27.1798 33.2742 26.9428 32.6791 26.9424ZM33.4274 36.6712C33.4274 37.0846 33.0924 37.4196 32.6791 37.4196H22.7007C22.2873 37.4196 21.9523 37.0846 21.9523 36.6712V29.1875C21.9523 28.7741 22.2873 28.4391 22.7007 28.4391H32.6791C33.0924 28.4391 33.4274 28.7741 33.4274 29.1875V36.6712Z" fill="black"/>
</svg>
