<svg width="61" height="64" viewBox="0 0 61 64" fill="none" xmlns="http://www.w3.org/2000/svg">
<path d="M50.0269 12.2938H34.9103C34.5049 12.2938 34.1863 11.9752 34.1863 11.5697C34.1863 11.1643 34.5049 10.8457 34.9103 10.8457H50.0269C50.4323 10.8457 50.7509 11.1643 50.7509 11.5697C50.7505 11.9752 50.4178 12.2938 50.0269 12.2938Z" fill="black"/>
<path d="M48.1154 15.8563H36.8214C36.416 15.8563 36.0974 15.5377 36.0974 15.1322C36.0974 14.7268 36.416 14.4082 36.8214 14.4082H48.1154C48.5208 14.4082 48.8394 14.7268 48.8394 15.1322C48.8394 15.5377 48.5067 15.8563 48.1154 15.8563Z" fill="black"/>
<path d="M50.0269 19.4178H34.9103C34.5049 19.4178 34.1863 19.0992 34.1863 18.6938C34.1863 18.2883 34.5049 17.9697 34.9103 17.9697H50.0269C50.4323 17.9697 50.7509 18.2883 50.7509 18.6938C50.7505 19.0992 50.4178 19.4178 50.0269 19.4178Z" fill="black"/>
<path d="M15.2327 36.605C12.7134 36.605 10.6572 34.5488 10.6572 32.0296C10.6572 29.5103 12.7134 27.4541 15.2327 27.4541C17.752 27.4541 19.8082 29.5103 19.8082 32.0296C19.8082 34.5488 17.7524 36.605 15.2327 36.605ZM15.2327 28.9162C13.5096 28.9162 12.1052 30.3206 12.1052 32.0436C12.1052 33.7667 13.5096 35.1711 15.2327 35.1711C16.9558 35.1711 18.3601 33.7667 18.3601 32.0436C18.3606 30.321 16.9558 28.9162 15.2327 28.9162Z" fill="black"/>
<path d="M44.8864 36.605C42.3671 36.605 40.3254 34.5488 40.3254 32.0296C40.3254 29.5103 42.3816 27.4541 44.8864 27.4541C47.3911 27.4541 49.4473 29.5103 49.4473 32.0296C49.4473 34.5488 47.4056 36.605 44.8864 36.605ZM44.8864 28.9162C43.1633 28.9162 41.7735 30.3206 41.7735 32.0436C41.7735 33.7667 43.1778 35.1711 44.8864 35.1711C46.5949 35.1711 47.9993 33.7667 47.9993 32.0436C47.9997 30.321 46.6094 28.9162 44.8864 28.9162Z" fill="black"/>
<path d="M37.5746 32.7664H22.5453C22.1399 32.7664 21.8213 32.4478 21.8213 32.0424C21.8213 31.637 22.1399 31.3184 22.5453 31.3184H37.5746C37.98 31.3184 38.2987 31.637 38.2987 32.0424C38.2987 32.4483 37.98 32.7664 37.5746 32.7664Z" fill="black"/>
<path d="M30.4794 22.8783C30.074 22.8783 29.7554 22.5597 29.7554 22.1542V8.09415C29.7554 7.68873 30.074 7.37012 30.4794 7.37012C30.8848 7.37012 31.2034 7.68873 31.2034 8.09415V22.1542C31.203 22.5597 30.8703 22.8783 30.4794 22.8783Z" fill="black"/>
<path d="M30.4795 22.8782H21.5022C21.314 22.8782 21.1404 22.806 21.0099 22.6901L17.2599 19.1718C17.1149 19.0413 17.0281 18.8532 17.0281 18.665C17.0281 18.4768 17.1003 18.2887 17.2308 18.1437L24.9337 10.1799C25.2087 9.89038 25.6577 9.89038 25.9472 10.1508L30.9718 14.8422C31.1168 14.9726 31.2036 15.1753 31.2036 15.378V22.1687C31.2032 22.5596 30.8704 22.8782 30.4795 22.8782ZM21.7916 21.4302H29.7554V15.6817L25.484 11.6852L18.7801 18.6209L21.7916 21.4302Z" fill="black"/>
<path d="M21.5019 22.8788H5.67555C5.38603 22.8788 5.12514 22.7052 5.0097 22.4443C4.8938 22.1839 4.95197 21.8653 5.15468 21.6626L12.6695 13.8869C12.9444 13.5974 13.3935 13.5974 13.683 13.8578L21.9941 21.6335C22.2113 21.8362 22.2836 22.1548 22.1677 22.4298C22.0664 22.7048 21.8059 22.8788 21.5019 22.8788ZM7.38361 21.4308H19.6763L13.2042 15.3927L7.38361 21.4308Z" fill="black"/>
<path d="M17.0434 14.7983C15.6536 14.7983 14.5242 13.6689 14.5242 12.279C14.5242 10.8892 15.6536 9.75977 17.0434 9.75977C18.4333 9.75977 19.5627 10.8892 19.5627 12.279C19.5627 13.6689 18.4333 14.7983 17.0434 14.7983ZM17.0434 11.2219C16.4499 11.2219 15.9722 11.6995 15.9722 12.2931C15.9722 12.8867 16.4499 13.3644 17.0434 13.3644C17.637 13.3644 18.1147 12.8867 18.1147 12.2931C18.1147 11.6995 17.637 11.2219 17.0434 11.2219Z" fill="black"/>
<path d="M55.1964 54.1829H4.93779C2.21571 54.1829 0 51.9677 0 49.2451L0.000454504 18.8968C0.000454504 16.1747 2.2157 13.959 4.93824 13.959H5.67681C6.08223 13.959 6.40084 14.2776 6.40084 14.683C6.40084 15.0884 6.08223 15.407 5.67681 15.407H4.93824C3.01248 15.407 1.44858 16.9709 1.44858 18.8967V49.2462C1.44858 51.172 3.01248 52.7359 4.93824 52.7359H55.1969C57.1226 52.7359 58.6866 51.172 58.6866 49.2462V18.8967C58.6866 16.9709 57.1226 15.407 55.1969 15.407H54.4438C54.0384 15.407 53.7197 15.0884 53.7197 14.683C53.7197 14.2776 54.0384 13.959 54.4438 13.959H55.1969C57.919 13.959 60.1347 16.1742 60.1347 18.8968V49.2463C60.1342 51.9684 57.919 54.1836 55.1969 54.1836L55.1964 54.1829Z" fill="black"/>
<path d="M49.6359 42.6571H10.4831C7.42791 42.6571 4.93726 40.1664 4.93726 37.1112V5.54585C4.9518 2.49065 7.42791 0 10.4831 0H49.6219C52.6771 0 55.1678 2.49065 55.1678 5.54585C55.1678 7.41389 55.1678 10.5413 55.1823 14.1033C55.1968 26.425 55.2114 36.6909 55.1678 37.4297C54.9937 40.3545 52.5612 42.6565 49.636 42.6565L49.6359 42.6571ZM10.4831 1.44836C8.22423 1.44836 6.38527 3.28732 6.38527 5.5462V37.1116C6.38527 39.3705 8.22423 41.2094 10.4831 41.2094H49.6219C51.794 41.2094 53.5748 39.5154 53.7052 37.3579C53.7488 36.6048 53.7343 23.6027 53.7197 14.1036C53.7197 10.5417 53.7052 7.42879 53.7052 5.5462C53.7052 3.28732 51.8662 1.44836 49.6074 1.44836H10.4831Z" fill="black"/>
<path d="M54.4574 22.8777H5.67642C5.271 22.8777 4.95239 22.5591 4.95239 22.1537C4.95239 21.7483 5.271 21.4297 5.67642 21.4297H54.4574C54.8628 21.4297 55.1814 21.7483 55.1814 22.1537C55.1814 22.5591 54.8483 22.8777 54.4574 22.8777Z" fill="black"/>
<path d="M54.4427 8.81915H5.67569C5.27027 8.81915 4.95166 8.50054 4.95166 8.09512C4.95166 7.6897 5.27027 7.37109 5.67569 7.37109H54.4427C54.8481 7.37109 55.1667 7.6897 55.1667 8.09512C55.1667 8.50054 54.8481 8.81915 54.4427 8.81915Z" fill="black"/>
<path d="M12.873 6.44483C11.7582 6.44483 10.8459 5.53264 10.8459 4.41773C10.8459 3.30283 11.7581 2.39062 12.873 2.39062C13.9879 2.39062 14.9001 3.30281 14.9001 4.41773C14.9001 5.53262 13.988 6.44483 12.873 6.44483ZM12.873 3.83875C12.5544 3.83875 12.294 4.09919 12.294 4.4178C12.294 4.7364 12.5544 4.99684 12.873 4.99684C13.1917 4.99684 13.4521 4.7364 13.4521 4.4178C13.4521 4.09919 13.1912 3.83875 12.873 3.83875Z" fill="black"/>
<path d="M18.606 6.44483C17.4911 6.44483 16.5789 5.53264 16.5789 4.41773C16.5789 3.30283 17.491 2.39062 18.606 2.39062C19.7209 2.39062 20.6331 3.30281 20.6331 4.41773C20.6331 5.53262 19.7209 6.44483 18.606 6.44483ZM18.606 3.83875C18.2873 3.83875 18.0269 4.09919 18.0269 4.4178C18.0269 4.7364 18.2873 4.99684 18.606 4.99684C18.9246 4.99684 19.185 4.7364 19.185 4.4178C19.1855 4.09919 18.9246 3.83875 18.606 3.83875Z" fill="black"/>
<path d="M24.3257 6.44483C23.2108 6.44483 22.2986 5.53264 22.2986 4.41773C22.2986 3.30283 23.2108 2.39062 24.3257 2.39062C25.4406 2.39062 26.3528 3.30281 26.3528 4.41773C26.3528 5.53262 25.4406 6.44483 24.3257 6.44483ZM24.3257 3.83875C24.0071 3.83875 23.7466 4.09919 23.7466 4.4178C23.7466 4.7364 24.0071 4.99684 24.3257 4.99684C24.6443 4.99684 24.9047 4.7364 24.9047 4.4178C24.9047 4.09919 24.6443 3.83875 24.3257 3.83875Z" fill="black"/>
<path d="M42.8154 5.14044H29.0451C28.6397 5.14044 28.321 4.82183 28.321 4.41641C28.321 4.01099 28.6397 3.69238 29.0451 3.69238H42.8154C43.2209 3.69238 43.5395 4.01099 43.5395 4.41641C43.5395 4.82183 43.2068 5.14044 42.8154 5.14044Z" fill="black"/>
<path d="M48.7377 5.14044H45.6388C45.2334 5.14044 44.9148 4.82183 44.9148 4.41641C44.9148 4.01099 45.2334 3.69238 45.6388 3.69238H48.7377C49.1431 3.69238 49.4617 4.01099 49.4617 4.41641C49.4617 4.82183 49.1431 5.14044 48.7377 5.14044Z" fill="black"/>
<path d="M41.6134 63.9999H18.5336C18.1282 63.9999 17.8096 63.6813 17.8096 63.2759V61.4369C17.8096 60.0326 18.9536 58.874 20.3725 58.874H39.7895C41.1938 58.874 42.3524 60.018 42.3524 61.4369V63.2759C42.3378 63.6813 42.0047 63.9999 41.6138 63.9999H41.6134ZM19.2573 62.5519H40.8897V61.437C40.8897 60.8289 40.3974 60.3221 39.7748 60.3221H20.3578C19.7497 60.3221 19.2429 60.8143 19.2429 61.437L19.2573 62.5519Z" fill="black"/>
<path d="M34.8661 60.3366C34.4607 60.3366 34.1421 60.018 34.1421 59.6125V53.4731C34.1421 53.0676 34.4607 52.749 34.8661 52.749C35.2715 52.749 35.5901 53.0676 35.5901 53.4731V59.6125C35.5901 60.0034 35.272 60.3366 34.8661 60.3366ZM25.2665 60.3366C24.8611 60.3366 24.5425 60.018 24.5425 59.6125V53.4731C24.5425 53.0676 24.8611 52.749 25.2665 52.749C25.6719 52.749 25.9905 53.0676 25.9905 53.4731V59.6125C25.9905 60.0034 25.6574 60.3366 25.2665 60.3366Z" fill="black"/>
<path d="M59.4097 46.9012H0.724761C0.319341 46.9012 0.000732422 46.5826 0.000732422 46.1772C0.000732422 45.7717 0.319341 45.4531 0.724761 45.4531H59.4248C59.8302 45.4531 60.1488 45.7717 60.1488 46.1772C60.1488 46.5826 59.8157 46.9012 59.4103 46.9012H59.4097Z" fill="black"/>
<path d="M34.7077 50.5496H25.4262C25.0208 50.5496 24.7021 50.231 24.7021 49.8256C24.7021 49.4202 25.0208 49.1016 25.4262 49.1016H34.7077C35.1131 49.1016 35.4317 49.4202 35.4317 49.8256C35.4317 50.231 35.1131 50.5496 34.7077 50.5496Z" fill="black"/>
</svg>
