<svg width="67" height="64" viewBox="0 0 67 64" fill="none" xmlns="http://www.w3.org/2000/svg">
<path d="M65.3703 56.4542H59.1185C58.6997 56.4542 58.3706 56.1251 58.3706 55.7064L58.3711 21.3523C58.3711 20.9336 58.7002 20.6045 59.1189 20.6045H65.3708C65.5651 20.6045 65.7595 20.6791 65.8942 20.8289C66.029 20.9636 66.1186 21.158 66.1186 21.3523V55.6907C66.1182 56.11 65.7745 56.4536 65.3703 56.4536V56.4542ZM59.8668 54.959H64.6229L64.6224 22.1001H59.8664L59.8668 54.959Z" fill="#2D2D2D"/>
<path d="M62.1554 63.9967C61.9159 63.9967 61.6915 63.877 61.5422 63.6826L58.4912 59.4203C58.4015 59.2856 58.3564 59.1363 58.3564 58.9866V55.7111C58.3564 55.2924 58.6855 54.9633 59.1043 54.9633C59.5231 54.9633 59.8522 55.2924 59.8522 55.7111V58.7472L62.1703 61.9775L64.6082 58.7321V55.6961C64.6082 55.2773 64.9373 54.9482 65.3561 54.9482C65.7749 54.9482 66.104 55.2773 66.104 55.6961V58.9715C66.104 59.1359 66.0443 59.2856 65.9542 59.4203L62.7388 63.6826C62.6191 63.877 62.3948 63.9967 62.1554 63.9967Z" fill="#2D2D2D"/>
<path d="M65.3703 26.2672H59.1185C58.6997 26.2672 58.3706 25.9381 58.3706 25.5193C58.3706 25.1006 58.6997 24.7715 59.1185 24.7715H65.3703C65.7891 24.7715 66.1182 25.1006 66.1182 25.5193C66.1182 25.9386 65.7745 26.2672 65.3703 26.2672Z" fill="#2D2D2D"/>
<path d="M65.3705 22.1027C64.9517 22.1027 64.6226 21.7736 64.6226 21.3548V13.2337H59.8666V21.3548C59.8666 21.7736 59.5375 22.1027 59.1187 22.1027C58.6999 22.1027 58.3708 21.7736 58.3708 21.3548L58.3713 12.5008C58.3713 12.082 58.7004 11.7529 59.1192 11.7529H65.371C65.7898 11.7529 66.1189 12.082 66.1189 12.5008V21.3699C66.1184 21.7736 65.7747 22.1027 65.3705 22.1027Z" fill="#2D2D2D"/>
<path d="M24.4228 54.5289H4.83071C2.16844 54.5289 0 52.3605 0 49.6982V4.83071C0 2.16844 2.16844 0 4.83071 0H28.5654C31.2277 0 33.3961 2.16844 33.3961 4.83071V10.215C33.3961 10.6337 33.067 10.9628 32.6483 10.9628C32.2295 10.9628 31.9004 10.6337 31.9004 10.215V4.83071C31.9004 2.99085 30.4048 1.49566 28.5654 1.49566L4.83066 1.49519C2.9908 1.49519 1.49562 2.99086 1.49562 4.83024V49.6978C1.49562 51.5376 2.99128 53.0328 4.83066 53.0328H24.4227C24.8415 53.0328 25.1706 53.3619 25.1706 53.7807C25.1706 54.1999 24.8415 54.5289 24.4228 54.5289Z" fill="#2D2D2D"/>
<path d="M52.2412 64.0006H28.5065C25.8442 64.0006 23.6758 61.8322 23.6758 59.1699V14.3024C23.6758 11.6401 25.8442 9.47168 28.5065 9.47168H52.2412C54.9035 9.47168 57.0719 11.6401 57.0719 14.3024V59.1699C57.0719 61.8317 54.9035 64.0006 52.2412 64.0006ZM28.5065 10.9667C26.6666 10.9667 25.1714 12.4624 25.1714 14.3018V59.1693C25.1714 61.0092 26.6671 62.5044 28.5065 62.5044H52.2412C54.0811 62.5044 55.5763 61.0087 55.5763 59.1693V14.3018C55.5763 12.4619 54.0806 10.9667 52.2412 10.9667H28.5065Z" fill="#2D2D2D"/>
<path d="M17.6774 47.5879H7.49249C7.07372 47.5879 6.74463 47.2588 6.74463 46.84V37.0438C6.74463 36.625 7.07372 36.2959 7.49249 36.2959H17.6774C18.0962 36.2959 18.4253 36.625 18.4253 37.0438V46.84C18.4253 47.2588 18.0962 47.5879 17.6774 47.5879ZM8.24038 46.0922H16.9297V37.7917H8.24038V46.0922Z" fill="#2D2D2D"/>
<path d="M17.6754 47.5867C17.4811 47.5867 17.3017 47.5121 17.152 47.3774L6.96705 37.5811C6.668 37.2971 6.65298 36.8182 6.95202 36.5192C7.23605 36.2201 7.7149 36.2201 8.01394 36.5041L18.1989 46.3004C18.4979 46.5844 18.5129 47.0633 18.2139 47.3623C18.0792 47.5116 17.8698 47.5867 17.6754 47.5867Z" fill="#2D2D2D"/>
<path d="M7.4912 47.5867C7.29685 47.5867 7.10249 47.5121 6.95273 47.3623C6.6687 47.0633 6.68372 46.5844 6.96775 46.3004L17.1527 36.5041C17.4517 36.2201 17.9156 36.2201 18.2146 36.5192C18.4986 36.8182 18.4986 37.2971 18.1996 37.5811L8.01464 47.3774C7.86489 47.5116 7.68556 47.5867 7.4912 47.5867Z" fill="#2D2D2D"/>
<path d="M17.6774 32.9199H7.49249C7.07372 32.9199 6.74463 32.5908 6.74463 32.1721V22.3758C6.74463 21.957 7.07372 21.6279 7.49249 21.6279H17.6774C18.0962 21.6279 18.4253 21.957 18.4253 22.3758V32.1721C18.4253 32.5758 18.0962 32.9199 17.6774 32.9199ZM8.24038 31.4243H16.9297V23.1238H8.24038V31.4243Z" fill="#2D2D2D"/>
<path d="M17.6754 32.9216C17.4811 32.9216 17.3017 32.8469 17.152 32.7122L6.96705 22.9159C6.668 22.6319 6.65298 22.153 6.95202 21.854C7.23605 21.555 7.7149 21.5399 8.01394 21.839L18.1989 31.6353C18.4979 31.9193 18.5129 32.3981 18.2139 32.6972C18.0792 32.8319 17.8698 32.9216 17.6754 32.9216Z" fill="#2D2D2D"/>
<path d="M7.4912 32.9217C7.29685 32.9217 7.10249 32.8471 6.95273 32.6973C6.6687 32.3982 6.68372 31.9194 6.96775 31.6354L17.1527 21.8391C17.4517 21.5551 17.9156 21.5551 18.2146 21.8541C18.4986 22.1532 18.4986 22.617 18.1996 22.916L8.01464 32.7123C7.86489 32.8471 7.68556 32.9217 7.4912 32.9217Z" fill="#2D2D2D"/>
<path d="M17.6774 18.2393H7.49249C7.07372 18.2393 6.74463 17.9102 6.74463 17.4914V7.69512C6.74463 7.27636 7.07372 6.94727 7.49249 6.94727H17.6774C18.0962 6.94727 18.4253 7.27636 18.4253 7.69512V17.4914C18.4253 17.8951 18.0962 18.2393 17.6774 18.2393ZM8.24038 16.7436H16.9297V8.4431H8.24038V16.7436Z" fill="#2D2D2D"/>
<path d="M17.6763 18.2263C17.4819 18.2263 17.3026 18.1516 17.1528 18.0169L6.98292 8.22061C6.68387 7.93659 6.66884 7.45773 6.96789 7.1587C7.25192 6.85965 7.73077 6.84463 8.02981 7.14367L18.2147 16.9399C18.5138 17.224 18.5288 17.7028 18.2298 18.0019C18.08 18.1516 17.8706 18.2263 17.6763 18.2263Z" fill="#2D2D2D"/>
<path d="M7.4912 18.2225C7.29685 18.2225 7.10249 18.1478 6.95273 17.9981C6.6687 17.699 6.68372 17.2352 6.96775 16.9362L17.1677 7.13989C17.4668 6.85586 17.9306 6.85586 18.2296 7.15491C18.5137 7.45396 18.5137 7.93281 18.2146 8.21683L8.02967 18.0131C7.86489 18.1478 7.68556 18.2225 7.4912 18.2225Z" fill="#2D2D2D"/>
<path d="M48.7865 31.5999H31.961C31.5422 31.5999 31.2131 31.2708 31.2131 30.852V14.6395C31.2131 14.2207 31.5422 13.8916 31.961 13.8916H48.8009C49.2197 13.8916 49.5487 14.2207 49.5487 14.6395V30.852C49.5337 31.2708 49.2046 31.5999 48.7859 31.5999H48.7865ZM32.7085 30.1042H48.0534V15.3879H32.7085V30.1042Z" fill="#2D2D2D"/>
<path d="M48.7845 31.5986C48.5901 31.5986 48.4108 31.524 48.261 31.3892L31.4356 15.1767C31.1365 14.8926 31.1215 14.4138 31.4205 14.1148C31.7046 13.8157 32.1834 13.8007 32.4824 14.0997L49.3223 30.3123C49.6214 30.5963 49.6214 31.0752 49.3374 31.3742C49.1876 31.5235 48.9932 31.5986 48.7839 31.5986H48.7845Z" fill="#2D2D2D"/>
<path d="M31.9584 31.5961C31.764 31.5961 31.5697 31.5215 31.4199 31.3717C31.1359 31.0727 31.1359 30.6088 31.4349 30.3098L48.2748 14.0973C48.5739 13.8132 49.0527 13.8283 49.3367 14.1123C49.6208 14.4113 49.6208 14.8902 49.3217 15.1742L32.4662 31.3867C32.3169 31.521 32.1371 31.5961 31.9578 31.5961H31.9584Z" fill="#2D2D2D"/>
<path d="M51.9999 36.4674H28.7435C28.3247 36.4674 27.9956 36.1383 27.9956 35.7195C27.9956 35.3008 28.3247 34.9717 28.7435 34.9717H51.9855C52.4042 34.9717 52.7333 35.3008 52.7333 35.7195C52.7333 36.1388 52.4042 36.4674 52.0005 36.4674H51.9999Z" fill="#2D2D2D"/>
<path d="M51.9999 40.8981H28.7435C28.3247 40.8981 27.9956 40.569 27.9956 40.1502C27.9956 39.7314 28.3247 39.4023 28.7435 39.4023H51.9855C52.4042 39.4023 52.7333 39.7314 52.7333 40.1502C52.7333 40.569 52.4042 40.8981 52.0005 40.8981H51.9999Z" fill="#2D2D2D"/>
<path d="M51.9999 45.3346H28.7435C28.3247 45.3346 27.9956 45.0055 27.9956 44.5867C27.9956 44.168 28.3247 43.8389 28.7435 43.8389H51.9855C52.4042 43.8389 52.7333 44.168 52.7333 44.5867C52.7333 45.0055 52.4042 45.3346 52.0005 45.3346H51.9999Z" fill="#2D2D2D"/>
<path d="M51.9996 49.7535H28.7432C28.3245 49.7535 27.9954 49.4244 27.9954 49.0057C27.9954 48.5869 28.3245 48.2578 28.7432 48.2578H51.9852C52.404 48.2578 52.7331 48.5869 52.7331 49.0057C52.7331 49.4244 52.404 49.7535 52.0002 49.7535H51.9996Z" fill="#2D2D2D"/>
<path d="M51.9999 54.1832H28.7435C28.3247 54.1832 27.9956 53.8541 27.9956 53.4354C27.9956 53.0166 28.3247 52.6875 28.7435 52.6875H51.9855C52.4042 52.6875 52.7333 53.0166 52.7333 53.4354C52.7333 53.8541 52.4042 54.1832 52.0005 54.1832H51.9999Z" fill="#2D2D2D"/>
<path d="M51.9999 58.6295H28.7435C28.3247 58.6295 27.9956 58.3004 27.9956 57.8816C27.9956 57.4629 28.3247 57.1338 28.7435 57.1338H51.9855C52.4042 57.1338 52.7333 57.4629 52.7333 57.8816C52.7333 58.3004 52.4042 58.6295 52.0005 58.6295H51.9999Z" fill="#2D2D2D"/>
</svg>
