<svg width="60" height="64" viewBox="0 0 60 64" fill="none" xmlns="http://www.w3.org/2000/svg">
<path d="M30.9334 45.8665C30.9334 46.4555 30.4558 46.9331 29.8667 46.9331C29.2777 46.9331 28.8 46.4555 28.8 45.8665C28.8 45.2774 29.2777 44.7998 29.8667 44.7998C30.4558 44.7998 30.9334 45.2774 30.9334 45.8665Z" fill="black"/>
<path d="M56.5333 6.40039H51.2V8.53372H56.5333C57.1733 8.53372 57.6 8.96039 57.6 9.60039V40.5337H55.4667V10.6671H51.2V12.8004H53.3333V40.5337H6.4V12.8004H8.53333V10.6671H4.26667V40.5337H2.13333V9.60039C2.13333 8.96039 2.56 8.53372 3.2 8.53372H8.53333V6.40039H3.2C1.38667 6.40039 0 7.78706 0 9.60039V48.0004C0 49.8137 1.38667 51.2004 3.2 51.2004H23.4667V55.4671H18.1333C15.1467 55.4671 12.8 57.8137 12.8 60.8004V64.0004H46.9333V60.8004C46.9333 57.8137 44.5867 55.4671 41.6 55.4671H36.2667V51.2004H56.5333C58.3467 51.2004 59.7333 49.8137 59.7333 48.0004V9.60039C59.7333 7.78706 58.3467 6.40039 56.5333 6.40039ZM41.6 57.6004C43.4133 57.6004 44.8 58.9871 44.8 60.8004V61.8671H14.9333V60.8004C14.9333 58.9871 16.32 57.6004 18.1333 57.6004H41.6ZM34.1333 55.4671H25.6V51.2004H34.1333V55.4671ZM56.5333 49.0671H3.2C2.56 49.0671 2.13333 48.6404 2.13333 48.0004V42.6671H57.6V48.0004C57.6 48.6404 57.1733 49.0671 56.5333 49.0671Z" fill="black"/>
<path d="M45.8667 0H13.8667C12.0534 0 10.6667 1.38667 10.6667 3.2V35.2C10.6667 37.0133 12.0534 38.4 13.8667 38.4H45.8667C47.6801 38.4 49.0667 37.0133 49.0667 35.2V3.2C49.0667 1.38667 47.6801 0 45.8667 0ZM46.9334 3.2V6.4H42.6667V2.13333H45.8667C46.5067 2.13333 46.9334 2.56 46.9334 3.2ZM13.8667 2.13333H40.5334V6.4H12.8001V3.2C12.8001 2.56 13.2267 2.13333 13.8667 2.13333ZM45.8667 36.2667H13.8667C13.2267 36.2667 12.8001 35.84 12.8001 35.2V8.53333H46.9334V35.2C46.9334 35.84 46.5067 36.2667 45.8667 36.2667Z" fill="black"/>
<path d="M22.4 15.9995H24.5333V13.8662H22.4C20.5867 13.8662 19.2 15.2529 19.2 17.0662V20.2662C19.2 20.9062 18.7733 21.3329 18.1333 21.3329H17.0667V23.4662H18.1333C18.7733 23.4662 19.2 23.8929 19.2 24.5329V27.7329C19.2 29.5462 20.5867 30.9329 22.4 30.9329H24.5333V28.7995H22.4C21.76 28.7995 21.3333 28.3729 21.3333 27.7329V24.3195C21.3333 23.7862 21.12 23.2529 20.6933 22.8262L20.2667 22.3995L20.6933 21.9729C21.12 21.5462 21.3333 21.0129 21.3333 20.4795V17.0662C21.3333 16.4262 21.76 15.9995 22.4 15.9995Z" fill="black"/>
<path d="M37.3333 15.9995H35.2V13.8662H37.3333C39.1466 13.8662 40.5333 15.2529 40.5333 17.0662V20.2662C40.5333 20.9062 40.96 21.3329 41.6 21.3329H42.6666V23.4662H41.6C40.96 23.4662 40.5333 23.8929 40.5333 24.5329V27.7329C40.5333 29.5462 39.1466 30.9329 37.3333 30.9329H35.2V28.7995H37.3333C37.9733 28.7995 38.4 28.3729 38.4 27.7329V24.3195C38.4 23.7862 38.6133 23.2529 39.04 22.8262L39.4666 22.3995L39.04 21.9729C38.6133 21.5462 38.4 21.0129 38.4 20.4795V17.0662C38.4 16.4262 37.9733 15.9995 37.3333 15.9995Z" fill="black"/>
<path d="M25.6001 22.3997C25.6001 22.9887 25.1225 23.4663 24.5335 23.4663C23.9444 23.4663 23.4668 22.9887 23.4668 22.3997C23.4668 21.8106 23.9444 21.333 24.5335 21.333C25.1225 21.333 25.6001 21.8106 25.6001 22.3997Z" fill="black"/>
<path d="M30.9334 22.3997C30.9334 22.9887 30.4558 23.4663 29.8667 23.4663C29.2777 23.4663 28.8 22.9887 28.8 22.3997C28.8 21.8106 29.2777 21.333 29.8667 21.333C30.4558 21.333 30.9334 21.8106 30.9334 22.3997Z" fill="black"/>
<path d="M36.2666 22.3997C36.2666 22.9887 35.789 23.4663 35.2 23.4663C34.6109 23.4663 34.1333 22.9887 34.1333 22.3997C34.1333 21.8106 34.6109 21.333 35.2 21.333C35.789 21.333 36.2666 21.8106 36.2666 22.3997Z" fill="black"/>
</svg>
